# xmcd
#
# Track frame offsets:
#	150
#	3011
#	16784
#	38791
#	53733
#	57822
#	70189
#	84644
#	88804
#	91622
#	109000
#	113128
#	132465
#	140240
#	168252
#
# Disc length: 2462 seconds
#
# Revision: 1
# Processed by: cddbd v1.5.1PL0 Copyright (c) Steve Scherf et al.
# Submitted via: EasyCDDAExtractor 7.0.6.1
#
DISCID=b9099c0f
DTITLE=Willie Nelson - Tougher than Leather
DYEAR=1981
DGENRE=Country
TTITLE0=My Love for the Rose
TTITLE1=Changing Skies
TTITLE2=Tougher than Leather
TTITLE3=Little Old Fashioned Karma
TTITLE4=Somewhere in Texas (Part 1)
TTITLE5=Beer Barrel Polka
TTITLE6=Summer of Roses
TTITLE7=Somewhere in Texas (Part 2)
TTITLE8=My Love for the Rose
TTITLE9=Convict and the Rose
TTITLE10=Changing Skies
TTITLE11=I am the Forest
TTITLE12=Nobody Slides, My Friend 
TTITLE13=Summer of Roses - December Day
TTITLE14=Notes
EXTD=
EXTT0=
EXTT1=
EXTT2=
EXTT3=
EXTT4=
EXTT5=
EXTT6=
EXTT7=
EXTT8=
EXTT9=
EXTT10=
EXTT11=
EXTT12=
EXTT13=
EXTT14=
PLAYORDER=
